<mxfile host="Electron" modified="2023-10-12T23:16:28.662Z" agent="Mozilla/5.0 (Windows NT 10.0; Win64; x64) AppleWebKit/537.36 (KHTML, like Gecko) draw.io/21.7.5 Chrome/114.0.5735.289 Electron/25.8.1 Safari/537.36" etag="gW6j9ZxHuBgeas0eDHCM" version="21.7.5" type="device">
  <diagram name="Page-1" id="ByE_iyZ5ZZ_60SZ4c1Ou">
    <mxGraphModel dx="1290" dy="-550" grid="1" gridSize="10" guides="1" tooltips="1" connect="1" arrows="1" fold="1" page="1" pageScale="1" pageWidth="850" pageHeight="1100" math="0" shadow="0">
      <root>
        <mxCell id="0" />
        <mxCell id="1" parent="0" />
        <mxCell id="NUd7cM4LP3BwAFaoa_ZL-1" value="" style="rounded=0;whiteSpace=wrap;html=1;" parent="1" vertex="1">
          <mxGeometry x="30" y="1180" width="1050" height="960" as="geometry" />
        </mxCell>
        <mxCell id="orI0mOkObjzreOyk0-HB-8" style="rounded=0;orthogonalLoop=1;jettySize=auto;html=1;exitX=1;exitY=0.3333333333333333;exitDx=0;exitDy=0;exitPerimeter=0;entryX=0;entryY=0.5;entryDx=0;entryDy=0;" edge="1" parent="1" source="NUd7cM4LP3BwAFaoa_ZL-6" target="orI0mOkObjzreOyk0-HB-7">
          <mxGeometry relative="1" as="geometry" />
        </mxCell>
        <mxCell id="orI0mOkObjzreOyk0-HB-24" style="edgeStyle=none;shape=connector;rounded=0;orthogonalLoop=1;jettySize=auto;html=1;exitX=1;exitY=0.3333333333333333;exitDx=0;exitDy=0;exitPerimeter=0;entryX=0;entryY=0.5;entryDx=0;entryDy=0;labelBackgroundColor=default;strokeColor=default;fontFamily=Helvetica;fontSize=11;fontColor=default;endArrow=classic;" edge="1" parent="1" source="NUd7cM4LP3BwAFaoa_ZL-6" target="orI0mOkObjzreOyk0-HB-23">
          <mxGeometry relative="1" as="geometry" />
        </mxCell>
        <mxCell id="orI0mOkObjzreOyk0-HB-26" style="edgeStyle=none;shape=connector;rounded=0;orthogonalLoop=1;jettySize=auto;html=1;exitX=1;exitY=0.3333333333333333;exitDx=0;exitDy=0;exitPerimeter=0;entryX=0;entryY=0.5;entryDx=0;entryDy=0;labelBackgroundColor=default;strokeColor=default;fontFamily=Helvetica;fontSize=11;fontColor=default;endArrow=classic;" edge="1" parent="1" source="NUd7cM4LP3BwAFaoa_ZL-6" target="orI0mOkObjzreOyk0-HB-13">
          <mxGeometry relative="1" as="geometry" />
        </mxCell>
        <mxCell id="orI0mOkObjzreOyk0-HB-27" style="edgeStyle=none;shape=connector;rounded=0;orthogonalLoop=1;jettySize=auto;html=1;exitX=1;exitY=0.3333333333333333;exitDx=0;exitDy=0;exitPerimeter=0;entryX=0;entryY=0.5;entryDx=0;entryDy=0;labelBackgroundColor=default;strokeColor=default;fontFamily=Helvetica;fontSize=11;fontColor=default;endArrow=classic;" edge="1" parent="1" source="NUd7cM4LP3BwAFaoa_ZL-6" target="orI0mOkObjzreOyk0-HB-17">
          <mxGeometry relative="1" as="geometry" />
        </mxCell>
        <mxCell id="orI0mOkObjzreOyk0-HB-29" style="edgeStyle=none;shape=connector;rounded=0;orthogonalLoop=1;jettySize=auto;html=1;exitX=1;exitY=0.3333333333333333;exitDx=0;exitDy=0;exitPerimeter=0;entryX=0;entryY=0.5;entryDx=0;entryDy=0;labelBackgroundColor=default;strokeColor=default;fontFamily=Helvetica;fontSize=11;fontColor=default;endArrow=classic;" edge="1" parent="1" source="NUd7cM4LP3BwAFaoa_ZL-6" target="orI0mOkObjzreOyk0-HB-28">
          <mxGeometry relative="1" as="geometry" />
        </mxCell>
        <mxCell id="orI0mOkObjzreOyk0-HB-32" style="edgeStyle=none;shape=connector;rounded=0;orthogonalLoop=1;jettySize=auto;html=1;exitX=1;exitY=0.3333333333333333;exitDx=0;exitDy=0;exitPerimeter=0;entryX=0;entryY=0.5;entryDx=0;entryDy=0;labelBackgroundColor=default;strokeColor=default;fontFamily=Helvetica;fontSize=11;fontColor=default;endArrow=classic;" edge="1" parent="1" source="NUd7cM4LP3BwAFaoa_ZL-6" target="orI0mOkObjzreOyk0-HB-31">
          <mxGeometry relative="1" as="geometry" />
        </mxCell>
        <mxCell id="orI0mOkObjzreOyk0-HB-35" style="edgeStyle=none;shape=connector;rounded=0;orthogonalLoop=1;jettySize=auto;html=1;exitX=1;exitY=0.3333333333333333;exitDx=0;exitDy=0;exitPerimeter=0;entryX=0;entryY=0.5;entryDx=0;entryDy=0;labelBackgroundColor=default;strokeColor=default;fontFamily=Helvetica;fontSize=11;fontColor=default;endArrow=classic;" edge="1" parent="1" source="NUd7cM4LP3BwAFaoa_ZL-6" target="orI0mOkObjzreOyk0-HB-34">
          <mxGeometry relative="1" as="geometry" />
        </mxCell>
        <mxCell id="orI0mOkObjzreOyk0-HB-38" style="edgeStyle=none;shape=connector;rounded=0;orthogonalLoop=1;jettySize=auto;html=1;exitX=1;exitY=0.3333333333333333;exitDx=0;exitDy=0;exitPerimeter=0;entryX=0;entryY=0.5;entryDx=0;entryDy=0;labelBackgroundColor=default;strokeColor=default;fontFamily=Helvetica;fontSize=11;fontColor=default;endArrow=classic;" edge="1" parent="1" source="NUd7cM4LP3BwAFaoa_ZL-6" target="orI0mOkObjzreOyk0-HB-37">
          <mxGeometry relative="1" as="geometry" />
        </mxCell>
        <mxCell id="orI0mOkObjzreOyk0-HB-88" style="edgeStyle=none;shape=connector;rounded=0;orthogonalLoop=1;jettySize=auto;html=1;exitX=1;exitY=0.3333333333333333;exitDx=0;exitDy=0;exitPerimeter=0;entryX=0;entryY=0.5;entryDx=0;entryDy=0;labelBackgroundColor=default;strokeColor=default;fontFamily=Helvetica;fontSize=11;fontColor=default;endArrow=classic;" edge="1" parent="1" source="NUd7cM4LP3BwAFaoa_ZL-6" target="orI0mOkObjzreOyk0-HB-87">
          <mxGeometry relative="1" as="geometry" />
        </mxCell>
        <mxCell id="NUd7cM4LP3BwAFaoa_ZL-6" value="Customer" style="shape=umlActor;verticalLabelPosition=bottom;verticalAlign=top;html=1;outlineConnect=0;" parent="1" vertex="1">
          <mxGeometry x="-160" y="1590" width="30" height="60" as="geometry" />
        </mxCell>
        <mxCell id="orI0mOkObjzreOyk0-HB-3" value="Grandpa&#39;s Cabinet&#39;s Web Processing" style="shape=umlActor;verticalLabelPosition=bottom;verticalAlign=top;html=1;outlineConnect=0;" vertex="1" parent="1">
          <mxGeometry x="1210" y="1550" width="30" height="60" as="geometry" />
        </mxCell>
        <mxCell id="orI0mOkObjzreOyk0-HB-9" style="edgeStyle=none;shape=connector;rounded=0;orthogonalLoop=1;jettySize=auto;html=1;entryX=0;entryY=0.3333333333333333;entryDx=0;entryDy=0;entryPerimeter=0;labelBackgroundColor=default;strokeColor=default;fontFamily=Helvetica;fontSize=11;fontColor=default;endArrow=classic;exitX=1;exitY=0.5;exitDx=0;exitDy=0;" edge="1" parent="1" source="orI0mOkObjzreOyk0-HB-7" target="orI0mOkObjzreOyk0-HB-3">
          <mxGeometry relative="1" as="geometry" />
        </mxCell>
        <mxCell id="orI0mOkObjzreOyk0-HB-7" value="View website" style="ellipse;whiteSpace=wrap;html=1;fontFamily=Helvetica;fontSize=11;fontColor=default;" vertex="1" parent="1">
          <mxGeometry x="495" y="1200" width="120" height="80" as="geometry" />
        </mxCell>
        <mxCell id="orI0mOkObjzreOyk0-HB-15" style="edgeStyle=none;shape=connector;rounded=0;orthogonalLoop=1;jettySize=auto;html=1;entryX=0;entryY=0.3333333333333333;entryDx=0;entryDy=0;entryPerimeter=0;labelBackgroundColor=default;strokeColor=default;fontFamily=Helvetica;fontSize=11;fontColor=default;endArrow=classic;exitX=1;exitY=0.5;exitDx=0;exitDy=0;" edge="1" parent="1" source="orI0mOkObjzreOyk0-HB-13" target="orI0mOkObjzreOyk0-HB-3">
          <mxGeometry relative="1" as="geometry" />
        </mxCell>
        <mxCell id="orI0mOkObjzreOyk0-HB-13" value="Select custom display case (&amp;lt;130 inches)" style="ellipse;whiteSpace=wrap;html=1;fontFamily=Helvetica;fontSize=11;fontColor=default;" vertex="1" parent="1">
          <mxGeometry x="495" y="1330" width="120" height="80" as="geometry" />
        </mxCell>
        <mxCell id="orI0mOkObjzreOyk0-HB-21" style="edgeStyle=none;shape=connector;rounded=0;orthogonalLoop=1;jettySize=auto;html=1;labelBackgroundColor=default;strokeColor=default;fontFamily=Helvetica;fontSize=11;fontColor=default;endArrow=classic;" edge="1" parent="1" source="orI0mOkObjzreOyk0-HB-17" target="orI0mOkObjzreOyk0-HB-18">
          <mxGeometry relative="1" as="geometry" />
        </mxCell>
        <mxCell id="orI0mOkObjzreOyk0-HB-17" value="Select custom display case (&amp;gt;130 inches)" style="ellipse;whiteSpace=wrap;html=1;fontFamily=Helvetica;fontSize=11;fontColor=default;" vertex="1" parent="1">
          <mxGeometry x="490" y="1450" width="120" height="80" as="geometry" />
        </mxCell>
        <mxCell id="orI0mOkObjzreOyk0-HB-22" style="edgeStyle=none;shape=connector;rounded=0;orthogonalLoop=1;jettySize=auto;html=1;labelBackgroundColor=default;strokeColor=default;fontFamily=Helvetica;fontSize=11;fontColor=default;endArrow=classic;exitX=1;exitY=0.5;exitDx=0;exitDy=0;" edge="1" parent="1" source="orI0mOkObjzreOyk0-HB-18">
          <mxGeometry relative="1" as="geometry">
            <mxPoint x="1210" y="1570" as="targetPoint" />
          </mxGeometry>
        </mxCell>
        <mxCell id="orI0mOkObjzreOyk0-HB-18" value="Get warning message and redirected to custom display kits" style="ellipse;whiteSpace=wrap;html=1;fontFamily=Helvetica;fontSize=11;fontColor=default;" vertex="1" parent="1">
          <mxGeometry x="640" y="1450" width="120" height="80" as="geometry" />
        </mxCell>
        <mxCell id="orI0mOkObjzreOyk0-HB-25" style="edgeStyle=none;shape=connector;rounded=0;orthogonalLoop=1;jettySize=auto;html=1;entryX=0;entryY=0.3333333333333333;entryDx=0;entryDy=0;entryPerimeter=0;labelBackgroundColor=default;strokeColor=default;fontFamily=Helvetica;fontSize=11;fontColor=default;endArrow=classic;" edge="1" parent="1" source="orI0mOkObjzreOyk0-HB-23" target="orI0mOkObjzreOyk0-HB-3">
          <mxGeometry relative="1" as="geometry" />
        </mxCell>
        <mxCell id="orI0mOkObjzreOyk0-HB-23" value="Select pocket watch case and set sizes" style="ellipse;whiteSpace=wrap;html=1;fontFamily=Helvetica;fontSize=11;fontColor=default;" vertex="1" parent="1">
          <mxGeometry x="495" y="1560" width="120" height="80" as="geometry" />
        </mxCell>
        <mxCell id="orI0mOkObjzreOyk0-HB-30" style="edgeStyle=none;shape=connector;rounded=0;orthogonalLoop=1;jettySize=auto;html=1;exitX=1;exitY=0.5;exitDx=0;exitDy=0;entryX=0;entryY=0.3333333333333333;entryDx=0;entryDy=0;entryPerimeter=0;labelBackgroundColor=default;strokeColor=default;fontFamily=Helvetica;fontSize=11;fontColor=default;endArrow=classic;" edge="1" parent="1" source="orI0mOkObjzreOyk0-HB-28" target="orI0mOkObjzreOyk0-HB-3">
          <mxGeometry relative="1" as="geometry" />
        </mxCell>
        <mxCell id="orI0mOkObjzreOyk0-HB-28" value="Select model car case and set sizes" style="ellipse;whiteSpace=wrap;html=1;fontFamily=Helvetica;fontSize=11;fontColor=default;" vertex="1" parent="1">
          <mxGeometry x="495" y="1660" width="120" height="80" as="geometry" />
        </mxCell>
        <mxCell id="orI0mOkObjzreOyk0-HB-33" style="edgeStyle=none;shape=connector;rounded=0;orthogonalLoop=1;jettySize=auto;html=1;exitX=1;exitY=0.5;exitDx=0;exitDy=0;labelBackgroundColor=default;strokeColor=default;fontFamily=Helvetica;fontSize=11;fontColor=default;endArrow=classic;" edge="1" parent="1" source="orI0mOkObjzreOyk0-HB-31">
          <mxGeometry relative="1" as="geometry">
            <mxPoint x="1210" y="1570" as="targetPoint" />
          </mxGeometry>
        </mxCell>
        <mxCell id="orI0mOkObjzreOyk0-HB-31" value="Select baseball bat case and set sizes" style="ellipse;whiteSpace=wrap;html=1;fontFamily=Helvetica;fontSize=11;fontColor=default;" vertex="1" parent="1">
          <mxGeometry x="495" y="1750" width="120" height="80" as="geometry" />
        </mxCell>
        <mxCell id="orI0mOkObjzreOyk0-HB-36" style="edgeStyle=none;shape=connector;rounded=0;orthogonalLoop=1;jettySize=auto;html=1;exitX=1;exitY=0.5;exitDx=0;exitDy=0;entryX=0;entryY=0.3333333333333333;entryDx=0;entryDy=0;entryPerimeter=0;labelBackgroundColor=default;strokeColor=default;fontFamily=Helvetica;fontSize=11;fontColor=default;endArrow=classic;" edge="1" parent="1" source="orI0mOkObjzreOyk0-HB-34" target="orI0mOkObjzreOyk0-HB-3">
          <mxGeometry relative="1" as="geometry" />
        </mxCell>
        <mxCell id="orI0mOkObjzreOyk0-HB-34" value="Select flag case and set sizes" style="ellipse;whiteSpace=wrap;html=1;fontFamily=Helvetica;fontSize=11;fontColor=default;" vertex="1" parent="1">
          <mxGeometry x="495" y="1850" width="120" height="80" as="geometry" />
        </mxCell>
        <mxCell id="orI0mOkObjzreOyk0-HB-39" style="edgeStyle=none;shape=connector;rounded=0;orthogonalLoop=1;jettySize=auto;html=1;exitX=1;exitY=0.5;exitDx=0;exitDy=0;entryX=0;entryY=0.3333333333333333;entryDx=0;entryDy=0;entryPerimeter=0;labelBackgroundColor=default;strokeColor=default;fontFamily=Helvetica;fontSize=11;fontColor=default;endArrow=classic;" edge="1" parent="1" source="orI0mOkObjzreOyk0-HB-37" target="orI0mOkObjzreOyk0-HB-3">
          <mxGeometry relative="1" as="geometry" />
        </mxCell>
        <mxCell id="orI0mOkObjzreOyk0-HB-37" value="View calculated price by UPS" style="ellipse;whiteSpace=wrap;html=1;fontFamily=Helvetica;fontSize=11;fontColor=default;" vertex="1" parent="1">
          <mxGeometry x="495" y="1950" width="120" height="80" as="geometry" />
        </mxCell>
        <mxCell id="orI0mOkObjzreOyk0-HB-41" value="" style="rounded=0;whiteSpace=wrap;html=1;" vertex="1" parent="1">
          <mxGeometry x="270" y="2240" width="640" height="590" as="geometry" />
        </mxCell>
        <mxCell id="orI0mOkObjzreOyk0-HB-85" style="edgeStyle=none;shape=connector;rounded=0;orthogonalLoop=1;jettySize=auto;html=1;exitX=0;exitY=0.3333333333333333;exitDx=0;exitDy=0;exitPerimeter=0;entryX=1;entryY=0.5;entryDx=0;entryDy=0;labelBackgroundColor=default;strokeColor=default;fontFamily=Helvetica;fontSize=11;fontColor=default;endArrow=classic;" edge="1" parent="1" source="orI0mOkObjzreOyk0-HB-50" target="orI0mOkObjzreOyk0-HB-84">
          <mxGeometry relative="1" as="geometry" />
        </mxCell>
        <mxCell id="orI0mOkObjzreOyk0-HB-50" value="UPS Web system" style="shape=umlActor;verticalLabelPosition=bottom;verticalAlign=top;html=1;outlineConnect=0;" vertex="1" parent="1">
          <mxGeometry x="1060" y="2490" width="30" height="60" as="geometry" />
        </mxCell>
        <mxCell id="orI0mOkObjzreOyk0-HB-77" style="edgeStyle=none;shape=connector;rounded=0;orthogonalLoop=1;jettySize=auto;html=1;exitX=1;exitY=0.3333333333333333;exitDx=0;exitDy=0;exitPerimeter=0;entryX=0;entryY=0.5;entryDx=0;entryDy=0;labelBackgroundColor=default;strokeColor=default;fontFamily=Helvetica;fontSize=11;fontColor=default;endArrow=classic;" edge="1" parent="1" source="orI0mOkObjzreOyk0-HB-51" target="orI0mOkObjzreOyk0-HB-76">
          <mxGeometry relative="1" as="geometry" />
        </mxCell>
        <mxCell id="orI0mOkObjzreOyk0-HB-91" style="edgeStyle=none;shape=connector;rounded=0;orthogonalLoop=1;jettySize=auto;html=1;exitX=1;exitY=0.3333333333333333;exitDx=0;exitDy=0;exitPerimeter=0;entryX=0;entryY=0.5;entryDx=0;entryDy=0;labelBackgroundColor=default;strokeColor=default;fontFamily=Helvetica;fontSize=11;fontColor=default;endArrow=classic;" edge="1" parent="1" source="orI0mOkObjzreOyk0-HB-51" target="orI0mOkObjzreOyk0-HB-90">
          <mxGeometry relative="1" as="geometry" />
        </mxCell>
        <mxCell id="orI0mOkObjzreOyk0-HB-97" style="edgeStyle=none;shape=connector;rounded=0;orthogonalLoop=1;jettySize=auto;html=1;exitX=1;exitY=0.3333333333333333;exitDx=0;exitDy=0;exitPerimeter=0;entryX=0;entryY=0.5;entryDx=0;entryDy=0;labelBackgroundColor=default;strokeColor=default;fontFamily=Helvetica;fontSize=11;fontColor=default;endArrow=classic;" edge="1" parent="1" source="orI0mOkObjzreOyk0-HB-51" target="orI0mOkObjzreOyk0-HB-96">
          <mxGeometry relative="1" as="geometry" />
        </mxCell>
        <mxCell id="orI0mOkObjzreOyk0-HB-51" value="Grandpa&#39;s Cabinet&#39;s Web Processing" style="shape=umlActor;verticalLabelPosition=bottom;verticalAlign=top;html=1;outlineConnect=0;" vertex="1" parent="1">
          <mxGeometry x="70" y="2505" width="30" height="60" as="geometry" />
        </mxCell>
        <mxCell id="orI0mOkObjzreOyk0-HB-80" style="edgeStyle=none;shape=connector;rounded=0;orthogonalLoop=1;jettySize=auto;html=1;labelBackgroundColor=default;strokeColor=default;fontFamily=Helvetica;fontSize=11;fontColor=default;endArrow=classic;" edge="1" parent="1" source="orI0mOkObjzreOyk0-HB-76" target="orI0mOkObjzreOyk0-HB-79">
          <mxGeometry relative="1" as="geometry" />
        </mxCell>
        <mxCell id="orI0mOkObjzreOyk0-HB-76" value="Send weight information" style="ellipse;whiteSpace=wrap;html=1;fontFamily=Helvetica;fontSize=11;fontColor=default;" vertex="1" parent="1">
          <mxGeometry x="365" y="2280" width="120" height="80" as="geometry" />
        </mxCell>
        <mxCell id="orI0mOkObjzreOyk0-HB-82" style="edgeStyle=none;shape=connector;rounded=0;orthogonalLoop=1;jettySize=auto;html=1;labelBackgroundColor=default;strokeColor=default;fontFamily=Helvetica;fontSize=11;fontColor=default;endArrow=classic;" edge="1" parent="1" source="orI0mOkObjzreOyk0-HB-79" target="orI0mOkObjzreOyk0-HB-81">
          <mxGeometry relative="1" as="geometry" />
        </mxCell>
        <mxCell id="orI0mOkObjzreOyk0-HB-79" value="Send package dimensions" style="ellipse;whiteSpace=wrap;html=1;fontFamily=Helvetica;fontSize=11;fontColor=default;" vertex="1" parent="1">
          <mxGeometry x="520" y="2280" width="120" height="80" as="geometry" />
        </mxCell>
        <mxCell id="orI0mOkObjzreOyk0-HB-83" style="edgeStyle=none;shape=connector;rounded=0;orthogonalLoop=1;jettySize=auto;html=1;entryX=0;entryY=0.3333333333333333;entryDx=0;entryDy=0;entryPerimeter=0;labelBackgroundColor=default;strokeColor=default;fontFamily=Helvetica;fontSize=11;fontColor=default;endArrow=classic;exitX=1;exitY=0.5;exitDx=0;exitDy=0;" edge="1" parent="1" source="orI0mOkObjzreOyk0-HB-81" target="orI0mOkObjzreOyk0-HB-50">
          <mxGeometry relative="1" as="geometry" />
        </mxCell>
        <mxCell id="orI0mOkObjzreOyk0-HB-81" value="Send shipping address" style="ellipse;whiteSpace=wrap;html=1;fontFamily=Helvetica;fontSize=11;fontColor=default;" vertex="1" parent="1">
          <mxGeometry x="660" y="2280" width="120" height="80" as="geometry" />
        </mxCell>
        <mxCell id="orI0mOkObjzreOyk0-HB-86" style="edgeStyle=none;shape=connector;rounded=0;orthogonalLoop=1;jettySize=auto;html=1;entryX=1;entryY=0.3333333333333333;entryDx=0;entryDy=0;entryPerimeter=0;labelBackgroundColor=default;strokeColor=default;fontFamily=Helvetica;fontSize=11;fontColor=default;endArrow=classic;exitX=0;exitY=0.5;exitDx=0;exitDy=0;" edge="1" parent="1" source="orI0mOkObjzreOyk0-HB-84" target="orI0mOkObjzreOyk0-HB-51">
          <mxGeometry relative="1" as="geometry">
            <mxPoint x="534" y="2636" as="sourcePoint" />
          </mxGeometry>
        </mxCell>
        <mxCell id="orI0mOkObjzreOyk0-HB-84" value="Send calculated price" style="ellipse;whiteSpace=wrap;html=1;fontFamily=Helvetica;fontSize=11;fontColor=default;" vertex="1" parent="1">
          <mxGeometry x="520" y="2480" width="120" height="80" as="geometry" />
        </mxCell>
        <mxCell id="orI0mOkObjzreOyk0-HB-89" style="edgeStyle=none;shape=connector;rounded=0;orthogonalLoop=1;jettySize=auto;html=1;exitX=1;exitY=0.5;exitDx=0;exitDy=0;entryX=0;entryY=0.3333333333333333;entryDx=0;entryDy=0;entryPerimeter=0;labelBackgroundColor=default;strokeColor=default;fontFamily=Helvetica;fontSize=11;fontColor=default;endArrow=classic;" edge="1" parent="1" source="orI0mOkObjzreOyk0-HB-87" target="orI0mOkObjzreOyk0-HB-3">
          <mxGeometry relative="1" as="geometry" />
        </mxCell>
        <mxCell id="orI0mOkObjzreOyk0-HB-87" value="Send payment to Cybersource integrated system" style="ellipse;whiteSpace=wrap;html=1;fontFamily=Helvetica;fontSize=11;fontColor=default;" vertex="1" parent="1">
          <mxGeometry x="495" y="2050" width="120" height="80" as="geometry" />
        </mxCell>
        <mxCell id="orI0mOkObjzreOyk0-HB-94" style="edgeStyle=none;shape=connector;rounded=0;orthogonalLoop=1;jettySize=auto;html=1;exitX=1;exitY=0.5;exitDx=0;exitDy=0;labelBackgroundColor=default;strokeColor=default;fontFamily=Helvetica;fontSize=11;fontColor=default;endArrow=classic;" edge="1" parent="1" source="orI0mOkObjzreOyk0-HB-90" target="orI0mOkObjzreOyk0-HB-93">
          <mxGeometry relative="1" as="geometry" />
        </mxCell>
        <mxCell id="orI0mOkObjzreOyk0-HB-90" value="Confirm payment for shipping by Cybersource integration" style="ellipse;whiteSpace=wrap;html=1;fontFamily=Helvetica;fontSize=11;fontColor=default;" vertex="1" parent="1">
          <mxGeometry x="365" y="2580" width="120" height="80" as="geometry" />
        </mxCell>
        <mxCell id="orI0mOkObjzreOyk0-HB-95" style="edgeStyle=none;shape=connector;rounded=0;orthogonalLoop=1;jettySize=auto;html=1;exitX=1;exitY=0.5;exitDx=0;exitDy=0;entryX=0;entryY=0.3333333333333333;entryDx=0;entryDy=0;entryPerimeter=0;labelBackgroundColor=default;strokeColor=default;fontFamily=Helvetica;fontSize=11;fontColor=default;endArrow=classic;" edge="1" parent="1" source="orI0mOkObjzreOyk0-HB-93" target="orI0mOkObjzreOyk0-HB-50">
          <mxGeometry relative="1" as="geometry" />
        </mxCell>
        <mxCell id="orI0mOkObjzreOyk0-HB-93" value="Send payment to UPS" style="ellipse;whiteSpace=wrap;html=1;fontFamily=Helvetica;fontSize=11;fontColor=default;" vertex="1" parent="1">
          <mxGeometry x="660" y="2580" width="120" height="80" as="geometry" />
        </mxCell>
        <mxCell id="orI0mOkObjzreOyk0-HB-98" style="edgeStyle=none;shape=connector;rounded=0;orthogonalLoop=1;jettySize=auto;html=1;exitX=1;exitY=0.5;exitDx=0;exitDy=0;entryX=0;entryY=0.3333333333333333;entryDx=0;entryDy=0;entryPerimeter=0;labelBackgroundColor=default;strokeColor=default;fontFamily=Helvetica;fontSize=11;fontColor=default;endArrow=classic;" edge="1" parent="1" source="orI0mOkObjzreOyk0-HB-96" target="orI0mOkObjzreOyk0-HB-50">
          <mxGeometry relative="1" as="geometry" />
        </mxCell>
        <mxCell id="orI0mOkObjzreOyk0-HB-96" value="Get shipping label" style="ellipse;whiteSpace=wrap;html=1;fontFamily=Helvetica;fontSize=11;fontColor=default;" vertex="1" parent="1">
          <mxGeometry x="520" y="2730" width="120" height="80" as="geometry" />
        </mxCell>
        <mxCell id="orI0mOkObjzreOyk0-HB-99" value="" style="rounded=0;whiteSpace=wrap;html=1;" vertex="1" parent="1">
          <mxGeometry x="270" y="2900" width="640" height="590" as="geometry" />
        </mxCell>
        <mxCell id="orI0mOkObjzreOyk0-HB-125" style="edgeStyle=none;shape=connector;rounded=0;orthogonalLoop=1;jettySize=auto;html=1;exitX=0;exitY=0.3333333333333333;exitDx=0;exitDy=0;exitPerimeter=0;entryX=1;entryY=0.5;entryDx=0;entryDy=0;labelBackgroundColor=default;strokeColor=default;fontFamily=Helvetica;fontSize=11;fontColor=default;endArrow=classic;" edge="1" parent="1" source="orI0mOkObjzreOyk0-HB-101" target="orI0mOkObjzreOyk0-HB-124">
          <mxGeometry relative="1" as="geometry" />
        </mxCell>
        <mxCell id="orI0mOkObjzreOyk0-HB-128" style="edgeStyle=none;shape=connector;rounded=0;orthogonalLoop=1;jettySize=auto;html=1;exitX=0;exitY=0.3333333333333333;exitDx=0;exitDy=0;exitPerimeter=0;entryX=1;entryY=0.5;entryDx=0;entryDy=0;labelBackgroundColor=default;strokeColor=default;fontFamily=Helvetica;fontSize=11;fontColor=default;endArrow=classic;" edge="1" parent="1" source="orI0mOkObjzreOyk0-HB-101" target="orI0mOkObjzreOyk0-HB-127">
          <mxGeometry relative="1" as="geometry" />
        </mxCell>
        <mxCell id="orI0mOkObjzreOyk0-HB-135" style="edgeStyle=none;shape=connector;rounded=0;orthogonalLoop=1;jettySize=auto;html=1;exitX=0;exitY=0.3333333333333333;exitDx=0;exitDy=0;exitPerimeter=0;entryX=1;entryY=0.5;entryDx=0;entryDy=0;labelBackgroundColor=default;strokeColor=default;fontFamily=Helvetica;fontSize=11;fontColor=default;endArrow=classic;" edge="1" parent="1" source="orI0mOkObjzreOyk0-HB-101" target="orI0mOkObjzreOyk0-HB-132">
          <mxGeometry relative="1" as="geometry" />
        </mxCell>
        <mxCell id="orI0mOkObjzreOyk0-HB-101" value="Cybersource Integration" style="shape=umlActor;verticalLabelPosition=bottom;verticalAlign=top;html=1;outlineConnect=0;" vertex="1" parent="1">
          <mxGeometry x="1060" y="3150" width="30" height="60" as="geometry" />
        </mxCell>
        <mxCell id="orI0mOkObjzreOyk0-HB-122" style="edgeStyle=none;shape=connector;rounded=0;orthogonalLoop=1;jettySize=auto;html=1;exitX=1;exitY=0.3333333333333333;exitDx=0;exitDy=0;exitPerimeter=0;entryX=0;entryY=0.5;entryDx=0;entryDy=0;labelBackgroundColor=default;strokeColor=default;fontFamily=Helvetica;fontSize=11;fontColor=default;endArrow=classic;" edge="1" parent="1" source="orI0mOkObjzreOyk0-HB-105" target="orI0mOkObjzreOyk0-HB-121">
          <mxGeometry relative="1" as="geometry" />
        </mxCell>
        <mxCell id="orI0mOkObjzreOyk0-HB-105" value="Grandpa&#39;s Cabinet&#39;s Web Processing" style="shape=umlActor;verticalLabelPosition=bottom;verticalAlign=top;html=1;outlineConnect=0;" vertex="1" parent="1">
          <mxGeometry x="70" y="3100" width="30" height="60" as="geometry" />
        </mxCell>
        <mxCell id="orI0mOkObjzreOyk0-HB-123" style="edgeStyle=none;shape=connector;rounded=0;orthogonalLoop=1;jettySize=auto;html=1;exitX=1;exitY=0.5;exitDx=0;exitDy=0;entryX=0;entryY=0.3333333333333333;entryDx=0;entryDy=0;entryPerimeter=0;labelBackgroundColor=default;strokeColor=default;fontFamily=Helvetica;fontSize=11;fontColor=default;endArrow=classic;" edge="1" parent="1" source="orI0mOkObjzreOyk0-HB-121" target="orI0mOkObjzreOyk0-HB-101">
          <mxGeometry relative="1" as="geometry" />
        </mxCell>
        <mxCell id="orI0mOkObjzreOyk0-HB-121" value="Open integrated payment window" style="ellipse;whiteSpace=wrap;html=1;fontFamily=Helvetica;fontSize=11;fontColor=default;" vertex="1" parent="1">
          <mxGeometry x="520" y="2940" width="120" height="80" as="geometry" />
        </mxCell>
        <mxCell id="orI0mOkObjzreOyk0-HB-126" style="edgeStyle=none;shape=connector;rounded=0;orthogonalLoop=1;jettySize=auto;html=1;exitX=0;exitY=0.5;exitDx=0;exitDy=0;entryX=1;entryY=0.3333333333333333;entryDx=0;entryDy=0;entryPerimeter=0;labelBackgroundColor=default;strokeColor=default;fontFamily=Helvetica;fontSize=11;fontColor=default;endArrow=classic;" edge="1" parent="1" source="orI0mOkObjzreOyk0-HB-124" target="orI0mOkObjzreOyk0-HB-105">
          <mxGeometry relative="1" as="geometry" />
        </mxCell>
        <mxCell id="orI0mOkObjzreOyk0-HB-124" value="Receive payment confirmation" style="ellipse;whiteSpace=wrap;html=1;fontFamily=Helvetica;fontSize=11;fontColor=default;" vertex="1" parent="1">
          <mxGeometry x="520" y="3070" width="120" height="80" as="geometry" />
        </mxCell>
        <mxCell id="orI0mOkObjzreOyk0-HB-129" style="edgeStyle=none;shape=connector;rounded=0;orthogonalLoop=1;jettySize=auto;html=1;labelBackgroundColor=default;strokeColor=default;fontFamily=Helvetica;fontSize=11;fontColor=default;endArrow=classic;entryX=1;entryY=0.3333333333333333;entryDx=0;entryDy=0;entryPerimeter=0;" edge="1" parent="1" source="orI0mOkObjzreOyk0-HB-127" target="orI0mOkObjzreOyk0-HB-105">
          <mxGeometry relative="1" as="geometry">
            <mxPoint x="100" y="3180" as="targetPoint" />
          </mxGeometry>
        </mxCell>
        <mxCell id="orI0mOkObjzreOyk0-HB-127" value="Receive payment failure" style="ellipse;whiteSpace=wrap;html=1;fontFamily=Helvetica;fontSize=11;fontColor=default;" vertex="1" parent="1">
          <mxGeometry x="520" y="3180" width="120" height="80" as="geometry" />
        </mxCell>
        <mxCell id="orI0mOkObjzreOyk0-HB-136" style="edgeStyle=none;shape=connector;rounded=0;orthogonalLoop=1;jettySize=auto;html=1;exitX=0;exitY=0.5;exitDx=0;exitDy=0;entryX=1;entryY=0.3333333333333333;entryDx=0;entryDy=0;entryPerimeter=0;labelBackgroundColor=default;strokeColor=default;fontFamily=Helvetica;fontSize=11;fontColor=default;endArrow=classic;" edge="1" parent="1" source="orI0mOkObjzreOyk0-HB-132" target="orI0mOkObjzreOyk0-HB-134">
          <mxGeometry relative="1" as="geometry" />
        </mxCell>
        <mxCell id="orI0mOkObjzreOyk0-HB-132" value="Receive order confirmation email and shopping cart notification" style="ellipse;whiteSpace=wrap;html=1;fontFamily=Helvetica;fontSize=11;fontColor=default;" vertex="1" parent="1">
          <mxGeometry x="520" y="3310" width="120" height="80" as="geometry" />
        </mxCell>
        <mxCell id="orI0mOkObjzreOyk0-HB-134" value="Customer" style="shape=umlActor;verticalLabelPosition=bottom;verticalAlign=top;html=1;outlineConnect=0;" vertex="1" parent="1">
          <mxGeometry x="80" y="3330" width="30" height="60" as="geometry" />
        </mxCell>
        <mxCell id="orI0mOkObjzreOyk0-HB-139" value="" style="rounded=0;whiteSpace=wrap;html=1;" vertex="1" parent="1">
          <mxGeometry x="280" y="3570" width="640" height="380" as="geometry" />
        </mxCell>
        <mxCell id="orI0mOkObjzreOyk0-HB-160" style="edgeStyle=none;shape=connector;rounded=0;orthogonalLoop=1;jettySize=auto;html=1;exitX=0;exitY=0.3333333333333333;exitDx=0;exitDy=0;exitPerimeter=0;entryX=1;entryY=0.5;entryDx=0;entryDy=0;labelBackgroundColor=default;strokeColor=default;fontFamily=Helvetica;fontSize=11;fontColor=default;endArrow=classic;" edge="1" parent="1" source="orI0mOkObjzreOyk0-HB-143" target="orI0mOkObjzreOyk0-HB-159">
          <mxGeometry relative="1" as="geometry" />
        </mxCell>
        <mxCell id="orI0mOkObjzreOyk0-HB-163" style="edgeStyle=none;shape=connector;rounded=0;orthogonalLoop=1;jettySize=auto;html=1;exitX=0;exitY=0.3333333333333333;exitDx=0;exitDy=0;exitPerimeter=0;entryX=1;entryY=0.5;entryDx=0;entryDy=0;labelBackgroundColor=default;strokeColor=default;fontFamily=Helvetica;fontSize=11;fontColor=default;endArrow=classic;" edge="1" parent="1" source="orI0mOkObjzreOyk0-HB-143" target="orI0mOkObjzreOyk0-HB-162">
          <mxGeometry relative="1" as="geometry" />
        </mxCell>
        <mxCell id="orI0mOkObjzreOyk0-HB-143" value="Salesforce Sales Cloud" style="shape=umlActor;verticalLabelPosition=bottom;verticalAlign=top;html=1;outlineConnect=0;" vertex="1" parent="1">
          <mxGeometry x="1080" y="3820" width="30" height="60" as="geometry" />
        </mxCell>
        <mxCell id="orI0mOkObjzreOyk0-HB-157" style="edgeStyle=none;shape=connector;rounded=0;orthogonalLoop=1;jettySize=auto;html=1;exitX=1;exitY=0.3333333333333333;exitDx=0;exitDy=0;exitPerimeter=0;entryX=0;entryY=0.5;entryDx=0;entryDy=0;labelBackgroundColor=default;strokeColor=default;fontFamily=Helvetica;fontSize=11;fontColor=default;endArrow=classic;" edge="1" parent="1" source="orI0mOkObjzreOyk0-HB-145" target="orI0mOkObjzreOyk0-HB-147">
          <mxGeometry relative="1" as="geometry" />
        </mxCell>
        <mxCell id="orI0mOkObjzreOyk0-HB-145" value="Grandpa&#39;s Cabinet&#39;s Web Processing" style="shape=umlActor;verticalLabelPosition=bottom;verticalAlign=top;html=1;outlineConnect=0;" vertex="1" parent="1">
          <mxGeometry x="80" y="3835" width="30" height="60" as="geometry" />
        </mxCell>
        <mxCell id="orI0mOkObjzreOyk0-HB-158" style="edgeStyle=none;shape=connector;rounded=0;orthogonalLoop=1;jettySize=auto;html=1;exitX=1;exitY=0.5;exitDx=0;exitDy=0;entryX=0;entryY=0.3333333333333333;entryDx=0;entryDy=0;entryPerimeter=0;labelBackgroundColor=default;strokeColor=default;fontFamily=Helvetica;fontSize=11;fontColor=default;endArrow=classic;" edge="1" parent="1" source="orI0mOkObjzreOyk0-HB-147" target="orI0mOkObjzreOyk0-HB-143">
          <mxGeometry relative="1" as="geometry" />
        </mxCell>
        <mxCell id="orI0mOkObjzreOyk0-HB-147" value="Send customer information" style="ellipse;whiteSpace=wrap;html=1;fontFamily=Helvetica;fontSize=11;fontColor=default;" vertex="1" parent="1">
          <mxGeometry x="540" y="3610" width="120" height="80" as="geometry" />
        </mxCell>
        <mxCell id="orI0mOkObjzreOyk0-HB-161" style="edgeStyle=none;shape=connector;rounded=0;orthogonalLoop=1;jettySize=auto;html=1;exitX=0;exitY=0.5;exitDx=0;exitDy=0;entryX=1;entryY=0.3333333333333333;entryDx=0;entryDy=0;entryPerimeter=0;labelBackgroundColor=default;strokeColor=default;fontFamily=Helvetica;fontSize=11;fontColor=default;endArrow=classic;" edge="1" parent="1" source="orI0mOkObjzreOyk0-HB-159" target="orI0mOkObjzreOyk0-HB-145">
          <mxGeometry relative="1" as="geometry" />
        </mxCell>
        <mxCell id="orI0mOkObjzreOyk0-HB-159" value="Create customer profile" style="ellipse;whiteSpace=wrap;html=1;fontFamily=Helvetica;fontSize=11;fontColor=default;" vertex="1" parent="1">
          <mxGeometry x="540" y="3710" width="120" height="80" as="geometry" />
        </mxCell>
        <mxCell id="orI0mOkObjzreOyk0-HB-164" style="edgeStyle=none;shape=connector;rounded=0;orthogonalLoop=1;jettySize=auto;html=1;exitX=0;exitY=0.5;exitDx=0;exitDy=0;entryX=1;entryY=0.3333333333333333;entryDx=0;entryDy=0;entryPerimeter=0;labelBackgroundColor=default;strokeColor=default;fontFamily=Helvetica;fontSize=11;fontColor=default;endArrow=classic;" edge="1" parent="1" source="orI0mOkObjzreOyk0-HB-162" target="orI0mOkObjzreOyk0-HB-145">
          <mxGeometry relative="1" as="geometry" />
        </mxCell>
        <mxCell id="orI0mOkObjzreOyk0-HB-162" value="Update customer profile" style="ellipse;whiteSpace=wrap;html=1;fontFamily=Helvetica;fontSize=11;fontColor=default;" vertex="1" parent="1">
          <mxGeometry x="540" y="3810" width="120" height="80" as="geometry" />
        </mxCell>
      </root>
    </mxGraphModel>
  </diagram>
</mxfile>
